#define iu_width 124
#define iu_height 124
static char iu_bits[] = {
 0x00,0x00,0x00,0x00,0x00,0x00,0x00,0xe0,0x00,0x00,0x00,0x00,0x00,0x00,0x00,
 0xf0,0x00,0x00,0x00,0x00,0x00,0x00,0xf8,0xff,0xff,0x03,0x00,0x00,0x00,0x00,
 0x00,0xf0,0x00,0x00,0x00,0x00,0x00,0x80,0xff,0xff,0xff,0x3f,0x00,0x00,0x00,
 0x00,0x00,0xf0,0x00,0x00,0x00,0x00,0x00,0xf8,0xff,0x3f,0xff,0xff,0x03,0x00,
 0x00,0x00,0x00,0xf0,0x00,0x00,0x00,0x00,0x00,0xff,0x0f,0x00,0x00,0xfe,0x1f,
 0x00,0x00,0x00,0x00,0xf0,0x00,0x00,0x00,0x00,0xc0,0xff,0x00,0x00,0x00,0xc0,
 0x7f,0x00,0x00,0x00,0x00,0xf0,0x00,0x00,0x00,0x00,0xf0,0x0f,0x00,0xf8,0x38,
 0x00,0xfe,0x01,0x00,0x00,0x00,0xf0,0x00,0x00,0x00,0x00,0xfc,0x03,0xcc,0x08,
 0xe8,0x00,0xf0,0x07,0x00,0x00,0x00,0xf0,0x00,0x00,0x00,0x00,0x7f,0x80,0xc9,
 0x08,0x88,0x70,0xc0,0x1f,0x00,0x00,0x00,0xf0,0x00,0x00,0x00,0xc0,0x1f,0x80,
 0xd9,0x78,0xd8,0xd8,0x00,0x7f,0x00,0x00,0x00,0xf0,0x00,0x00,0x00,0xe0,0x07,
 0x88,0xd1,0x08,0x7c,0x98,0x00,0xfc,0x01,0x00,0x00,0xf0,0x00,0x00,0x00,0xf8,
 0x81,0x19,0x71,0x08,0xcc,0x30,0x58,0xf0,0x03,0x00,0x00,0xf0,0x00,0x00,0x00,
 0xfc,0x80,0x1b,0x63,0xf8,0x4c,0x64,0xc8,0xc1,0x07,0x00,0x00,0xf0,0x00,0x00,
 0x00,0x3e,0x88,0x37,0x63,0x00,0xc0,0xcc,0x8c,0x87,0x1f,0x00,0x00,0xf0,0x00,
 0x00,0x80,0x0f,0x08,0x3f,0x02,0x00,0x00,0x78,0x84,0x05,0x3e,0x00,0x00,0xf0,
 0x00,0x00,0xc0,0x07,0x18,0x33,0x00,0xc0,0x00,0x00,0xc6,0x00,0x7c,0x00,0x00,
 0xf0,0x00,0x00,0xe0,0x83,0x31,0x22,0xe0,0x3f,0xff,0x00,0xc6,0x60,0xf8,0x00,
 0x00,0xf0,0x00,0x00,0xf0,0x00,0x23,0x06,0x1e,0x00,0x00,0x0f,0x60,0xf0,0xe0,
 0x01,0x00,0xf0,0x00,0x00,0x78,0x00,0x63,0xc0,0x01,0x00,0x00,0x70,0x20,0x58,
 0xc0,0x03,0x00,0xf0,0x00,0x00,0x3c,0x00,0x26,0x70,0x00,0x00,0x00,0x80,0x01,
 0x6e,0x80,0x07,0x00,0xf0,0x00,0x00,0x1e,0x00,0x1c,0x0c,0x00,0x00,0x00,0x00,
 0x06,0x7e,0x08,0x0f,0x00,0xf0,0x00,0x00,0x0f,0x00,0x00,0x03,0x00,0x02,0x18,
 0x00,0x18,0x30,0x18,0x1e,0x00,0xf0,0x00,0x80,0x07,0x00,0xc0,0x00,0x00,0x06,
 0x14,0x00,0x60,0x30,0x38,0x3c,0x00,0xf0,0x00,0xc0,0x03,0x00,0x20,0x00,0x00,
 0x09,0x22,0x00,0x80,0x21,0x4c,0x78,0x00,0xf0,0x00,0xc0,0x01,0x00,0x18,0xc0,
 0x81,0x10,0x42,0x60,0x00,0x03,0x06,0xf0,0x00,0xf0,0x00,0xe0,0x01,0x00,0x0c,
 0x40,0x86,0x50,0x02,0x98,0x00,0x04,0x03,0xe1,0x00,0xf0,0x00,0xf0,0x00,0x00,
 0x02,0x40,0x24,0xb0,0x22,0x80,0x00,0x18,0x81,0xe1,0x01,0xf0,0x00,0x78,0x38,
 0x00,0x01,0x00,0xc8,0x11,0xe3,0x85,0x00,0x30,0xc0,0xc0,0x03,0xf0,0x00,0x38,
 0x8c,0x80,0x00,0x40,0x98,0x11,0x23,0x86,0x00,0x60,0x60,0x80,0x07,0xf0,0x00,
 0x3c,0xec,0x61,0xe0,0x40,0x18,0x11,0x21,0x82,0x80,0xc1,0x38,0x0e,0x07,0xf0,
 0x00,0x1e,0x3c,0x21,0x20,0xb3,0x10,0x31,0x21,0x42,0x33,0x81,0x01,0x1b,0x0f,
 0xf0,0x00,0x0e,0x18,0x11,0x20,0x94,0x10,0x31,0x31,0x43,0x0a,0x01,0xc3,0x12,
 0x0e,0xf0,0x00,0x0f,0xe1,0x08,0x20,0x88,0x31,0x33,0x11,0x61,0x06,0x01,0x46,
 0x1a,0x1e,0xf0,0x00,0x07,0x47,0x04,0x20,0x18,0x21,0x22,0x11,0x21,0x06,0x01,
 0xc4,0x06,0x3c,0xf0,0x80,0x07,0x0e,0x02,0x40,0x10,0x23,0x00,0x80,0x31,0x83,
 0x00,0x88,0x03,0x38,0xf0,0x80,0x03,0x38,0x02,0x80,0x30,0x62,0x00,0x80,0x10,
 0x41,0x00,0x10,0x01,0x38,0xf0,0xc0,0x03,0x20,0x01,0xe0,0x61,0x46,0x51,0x8a,
 0x98,0xe1,0x01,0x30,0x00,0x70,0xf0,0xc0,0x61,0x80,0xc0,0x17,0x43,0x44,0x51,
 0xce,0xc8,0x30,0xf8,0x20,0x00,0x70,0xf0,0xe0,0x31,0x87,0x40,0x18,0xc2,0xcc,
 0x51,0x44,0x4c,0x18,0x84,0x40,0x00,0xe0,0xf0,0xe0,0x90,0x45,0x40,0x30,0x84,
 0x89,0x51,0x4e,0x66,0x08,0x83,0x40,0x00,0xe0,0xf0,0xf0,0xf0,0x24,0x40,0x60,
 0x08,0x91,0x67,0x4a,0x26,0x84,0x41,0x80,0x00,0xe0,0xf1,0xf0,0x40,0x26,0x80,
 0xc0,0x10,0x93,0x00,0x00,0x13,0xc2,0x60,0x80,0x00,0xc0,0xf1,0x70,0x00,0x03,
 0x00,0x83,0x21,0x26,0xa9,0x25,0x1b,0x63,0x10,0x00,0x01,0xc0,0xf1,0x78,0x00,
 0x10,0x80,0x07,0x63,0x24,0xa9,0xb5,0x89,0x31,0x3c,0x00,0x01,0xc0,0xf3,0x38,
 0x1c,0x10,0x00,0x1c,0xc6,0x4c,0xfb,0x97,0xc5,0x18,0x4e,0x00,0x02,0x86,0xf3,
 0x38,0xf0,0x08,0x90,0x70,0xff,0xff,0xff,0xff,0xff,0xbf,0x43,0x02,0x42,0x8f,
 0xf3,0x38,0xc0,0x09,0xe7,0xc0,0xff,0xff,0xff,0xff,0xff,0xff,0xc0,0x19,0x66,
 0x8b,0xf7,0x3c,0x7e,0x0c,0x81,0x83,0x19,0x00,0x40,0x00,0x00,0x66,0x70,0x10,
 0x24,0x0b,0xf7,0x1c,0x1e,0x04,0x02,0x0e,0x19,0x00,0x00,0x00,0x00,0x26,0x1c,
 0x00,0x64,0x0b,0xf7,0x1c,0xf8,0x04,0x04,0x38,0x19,0x00,0x00,0x00,0x00,0x26,
 0x07,0x08,0xc8,0x01,0xf7,0x1c,0xc0,0x04,0x1c,0xe0,0x99,0xfb,0x1e,0x3e,0x3f,
 0xe6,0x01,0x06,0x08,0x00,0xff,0x1e,0x00,0x02,0xe0,0x80,0x99,0xfb,0x1e,0x3e,
 0x3f,0x66,0xc0,0x01,0x08,0x00,0xfe,0x0e,0x01,0x02,0x98,0x07,0x19,0x00,0x00,
 0x00,0x00,0x26,0x78,0x02,0x08,0x3e,0xfe,0x0e,0x49,0x02,0x08,0x3c,0x19,0x00,
 0x00,0x00,0x00,0xa6,0x07,0x02,0xd0,0x07,0xfe,0x0e,0x49,0x02,0x00,0xe0,0x99,
 0xe7,0x1f,0xfe,0x33,0xe6,0x00,0x02,0x10,0x00,0xfe,0x0e,0x4d,0x02,0x7f,0x00,
 0x19,0x00,0x00,0x00,0x00,0x26,0xc0,0x3f,0x10,0x1e,0xfe,0x8e,0x7f,0xc1,0xe0,
 0x0f,0x19,0x00,0x00,0x00,0x00,0x26,0x7e,0xc0,0x10,0x3f,0xfe,0x0e,0x7c,0x21,
 0x00,0xfc,0x99,0xcf,0x1f,0x4e,0x3e,0xe6,0x03,0x80,0x90,0x21,0xfe,0x0e,0x00,
 0x41,0x00,0x80,0x99,0xcf,0x1f,0x4e,0x3e,0x26,0x00,0x40,0x90,0x61,0xfe,0x0e,
 0x00,0x81,0x00,0x00,0x19,0x00,0x00,0x00,0x00,0x26,0x00,0x20,0x90,0x65,0xfc,
 0x0e,0x00,0x01,0xff,0x7f,0x19,0x00,0x00,0x00,0x00,0xe6,0xff,0x03,0x10,0x37,
 0xfc,0x8f,0x3f,0x01,0x08,0xf8,0x99,0xf3,0x1c,0xfe,0x3d,0x66,0x00,0x04,0x90,
 0x17,0xfc,0x07,0x1c,0x01,0x04,0x00,0x19,0x00,0x00,0x00,0x00,0x26,0x00,0x08,
 0x10,0x00,0xfc,0x07,0x06,0x01,0x08,0xf0,0x19,0x00,0x00,0x00,0x00,0xe6,0x1f,
 0x04,0x10,0x00,0xfc,0x8e,0x3f,0x01,0xff,0xff,0x99,0x7f,0x1e,0x9e,0x3f,0x26,
 0xfe,0x1f,0x90,0x7f,0xfc,0x8e,0x3f,0x81,0x00,0x00,0x99,0x7f,0x1e,0x9e,0x3f,
 0x26,0x00,0x20,0x90,0x7f,0xfc,0x0e,0x00,0x81,0x00,0x80,0x19,0x00,0x00,0x00,
 0x00,0xe6,0x00,0x40,0x10,0x00,0xfe,0x0e,0x00,0x41,0x00,0xfc,0x19,0x00,0x00,
 0x00,0x00,0xe6,0x1f,0x80,0x90,0x03,0xfe,0x0e,0x40,0xc1,0xe0,0x1f,0x99,0xf3,
 0x19,0xce,0x39,0x26,0xfc,0x63,0x90,0x3f,0xfe,0x0e,0x70,0x02,0xff,0x00,0x99,
 0xf3,0x19,0xce,0x39,0x26,0x80,0x19,0x90,0x20,0xfe,0x0e,0x3c,0x02,0x10,0xe0,
 0x19,0x00,0x00,0x00,0x00,0xe6,0x01,0x02,0xd0,0x00,0xfe,0x0e,0x27,0x02,0x08,
 0x3c,0x99,0x9f,0x1f,0x7e,0x3e,0x26,0x1f,0x02,0xc8,0x00,0xfe,0x0e,0x3f,0x02,
 0x90,0x03,0x99,0x9f,0x1f,0x7e,0x3e,0x26,0xf8,0x01,0x08,0x00,0xfe,0x1e,0xfc,
 0x02,0x70,0x80,0x19,0x00,0x00,0x00,0x00,0x66,0x80,0x01,0x08,0x00,0xfe,0x1c,
 0x00,0x04,0x0c,0x60,0x19,0x00,0x00,0x00,0x00,0xe6,0x01,0x04,0xc8,0x00,0xff,
 0x1c,0x80,0x04,0x04,0x18,0x19,0x00,0x00,0x00,0x00,0x26,0x07,0x08,0xe4,0x07,
 0xf7,0x1c,0xf8,0x05,0x02,0x06,0x19,0x00,0x40,0x00,0x00,0x26,0x1c,0x10,0x24,
 0x1c,0xf7,0x1c,0x1e,0x08,0x82,0xc1,0x19,0x00,0xc0,0x00,0x00,0x66,0x70,0x10,
 0x24,0x00,0xf7,0x38,0x00,0x08,0xaf,0x60,0xff,0xff,0xff,0xff,0xff,0xff,0xa0,
 0x1f,0x22,0x80,0xf7,0x38,0xc0,0x09,0x80,0x30,0xff,0xff,0xff,0xff,0xff,0xbf,
 0x03,0x00,0x02,0x80,0xf3,0x38,0xf0,0x13,0x80,0x0c,0xc6,0x6c,0xa9,0xb6,0x4c,
 0x0c,0x66,0x00,0x02,0x80,0xf3,0x78,0x18,0x12,0x00,0x06,0x63,0x36,0xa9,0x24,
 0x99,0x30,0x1c,0x00,0x79,0xc0,0xf3,0x70,0x18,0x26,0x00,0x81,0x31,0xb2,0xad,
 0x24,0x1b,0x61,0x30,0x00,0xcd,0xc1,0xf1,0x70,0x18,0x27,0x80,0x40,0x00,0x00,
 0x00,0x00,0x00,0xc0,0x40,0x80,0x0c,0xc3,0xf1,0xf0,0xd0,0x43,0x00,0x20,0x00,
 0x00,0x00,0x00,0x00,0x80,0x41,0x80,0x0c,0xe0,0xf1,0xe0,0x70,0x40,0x40,0x10,
 0x14,0x42,0x8a,0x52,0xc4,0x09,0x03,0x40,0x38,0xe0,0xf0,0xe0,0x11,0x90,0x40,
 0x18,0x72,0x82,0x99,0x53,0xca,0x18,0x85,0x20,0xe0,0xe0,0xf0,0xc0,0x01,0x1c,
 0xc1,0x07,0x11,0x82,0x89,0x52,0x2e,0x31,0xf9,0x20,0x81,0x70,0xf0,0xc0,0x03,
 0x1e,0x01,0xe0,0x71,0x82,0xb9,0x52,0xca,0x60,0x00,0x10,0x03,0x70,0xf0,0x80,
 0x83,0x0b,0x02,0x80,0x00,0x00,0x00,0x00,0x00,0x40,0x00,0x08,0x0e,0x78,0xf0,
 0x80,0x87,0x6c,0x04,0x40,0x00,0x00,0x00,0x00,0x00,0x80,0x00,0xcc,0x1f,0x38,
 0xf0,0x00,0x07,0x3c,0x0c,0x00,0x18,0x31,0x33,0x11,0x21,0x06,0x00,0xa4,0x3e,
 0x3c,0xf0,0x00,0x0f,0x1e,0x19,0x00,0x94,0x31,0x33,0x11,0x61,0x0a,0x00,0x72,
 0x11,0x1e,0xf0,0x00,0x0e,0xc6,0x11,0x00,0xf2,0x10,0x31,0x11,0xc3,0x0b,0x00,
 0xc1,0x02,0x1e,0xf0,0x00,0x1e,0x60,0x20,0x80,0x81,0x10,0x31,0x31,0x42,0xe0,
 0x80,0x80,0x07,0x0f,0xf0,0x00,0x3c,0x30,0x40,0x00,0x40,0x18,0x31,0x31,0x82,
 0x00,0x40,0x00,0x06,0x07,0xf0,0x00,0x38,0x18,0x80,0x01,0x40,0x98,0x31,0x61,
 0x85,0x00,0x20,0x00,0x84,0x07,0xf0,0x00,0x78,0x00,0x00,0x03,0x40,0x60,0x31,
 0xa1,0x85,0x00,0x10,0x00,0xc0,0x03,0xf0,0x00,0xf0,0x00,0x00,0x06,0x40,0x04,
 0x50,0x20,0x88,0x00,0x0c,0x00,0xe0,0x01,0xf0,0x00,0xe0,0x01,0x04,0x08,0x40,
 0x83,0x10,0x22,0x30,0x00,0x06,0x00,0xe0,0x01,0xf0,0x00,0xe0,0x01,0x3c,0x30,
 0x80,0x00,0x11,0x22,0x40,0x00,0x81,0x02,0xf0,0x00,0xf0,0x00,0xc0,0x03,0x1c,
 0x40,0x00,0x00,0x09,0x14,0x00,0xc0,0x00,0x03,0x78,0x00,0xf0,0x00,0x80,0x07,
 0x3e,0x80,0x01,0x00,0x06,0x18,0x00,0x30,0x80,0x0f,0x3c,0x00,0xf0,0x00,0x00,
 0x0f,0x08,0x00,0x06,0x00,0x00,0x00,0x00,0x0c,0xc0,0x02,0x1e,0x00,0xf0,0x00,
 0x00,0x1e,0x08,0x18,0x38,0x00,0x00,0x00,0x00,0x03,0x00,0x02,0x0f,0x00,0xf0,
 0x00,0x00,0x3c,0x00,0x18,0xe0,0x00,0x00,0x00,0xe0,0x80,0x00,0x80,0x07,0x00,
 0xf0,0x00,0x00,0x78,0x00,0x1c,0x00,0x0f,0x00,0x00,0x1c,0xc0,0x00,0xc0,0x07,
 0x00,0xf0,0x00,0x00,0xf0,0x00,0x94,0x01,0xf8,0x01,0xf0,0x03,0xd8,0x00,0xe0,
 0x01,0x00,0xf0,0x00,0x00,0xe0,0x03,0xf6,0x01,0x00,0xfe,0x0f,0x00,0xf8,0x00,
 0xf0,0x00,0x00,0xf0,0x00,0x00,0xc0,0x07,0xaa,0x30,0x00,0x00,0x00,0x80,0xe0,
 0x00,0x7c,0x00,0x00,0xf0,0x00,0x00,0x80,0x0f,0xda,0xf0,0x01,0x00,0x00,0xd0,
 0xc0,0x01,0x3e,0x00,0x00,0xf0,0x00,0x00,0x00,0x3f,0x78,0x10,0x61,0x00,0xc0,
 0xf8,0x40,0x07,0x1f,0x00,0x00,0xf0,0x00,0x00,0x00,0x7c,0x60,0x18,0xf1,0xe1,
 0xf0,0xe1,0x40,0xc0,0x0f,0x00,0x00,0xf0,0x00,0x00,0x00,0xf8,0x01,0x18,0x19,
 0xb1,0x11,0xe1,0xc0,0xf0,0x03,0x00,0x00,0xf0,0x00,0x00,0x00,0xf0,0x07,0x88,
 0x19,0x10,0x11,0xe0,0x01,0xf8,0x01,0x00,0x00,0xf0,0x00,0x00,0x00,0xc0,0x1f,
 0xdc,0x08,0x18,0x10,0x60,0x03,0x7e,0x00,0x00,0x00,0xf0,0x00,0x00,0x00,0x00,
 0x7f,0x60,0x98,0x19,0x30,0x63,0x80,0x1f,0x00,0x00,0x00,0xf0,0x00,0x00,0x00,
 0x00,0xfc,0x01,0xf0,0x31,0xf1,0x01,0xf0,0x0f,0x00,0x00,0x00,0xf0,0x00,0x00,
 0x00,0x00,0xf0,0x0f,0xf0,0xf0,0xc1,0x00,0xfe,0x03,0x00,0x00,0x00,0xf0,0x00,
 0x00,0x00,0x00,0xc0,0x7f,0x00,0x00,0x00,0xc0,0x7f,0x00,0x00,0x00,0x00,0xf0,
 0x00,0x00,0x00,0x00,0x00,0xff,0x07,0x00,0x00,0xfc,0x1f,0x00,0x00,0x00,0x00,
 0xf0,0x00,0x00,0x00,0x00,0x00,0xf8,0xff,0x07,0xfc,0xff,0x03,0x00,0x00,0x00,
 0x00,0xf0,0x00,0x00,0x00,0x00,0x00,0xc0,0xff,0xff,0xff,0x7f,0x00,0x00,0x00,
 0x00,0x00,0xf0,0x00,0x00,0x00,0x00,0x00,0x00,0xf8,0xff,0xff,0x07,0x00,0x00,
 0x00,0x00,0x00,0xf0};
