/* XPM */
static char * diropen_xpm[] = {
"16 16 5 1",
" 	s None	c None",
".	c grey51",
"X	c white",
"o	c goldenrod1",
"O	c grey4",
"                ",
"   ....         ",
"  .XXXX.        ",
" .XooooX......  ",
" .XoooooXXXXX.O ",
" .Xoooooooooo.O ",
"...........oo.O ",
".XXXXXXXXX.Oo.O ",
".XoooooooooO..O ",
" .Xoooooooo.O.O ",
" .XoooooooooO.O ",
"  .Xoooooooo.OO ",
"  ...........OO ",
"   OOOOOOOOOOOO ",
"                ",
"                "};

