/* XPM */
static char * error_xpm[] = {
/* width height ncolors chars_per_pixel */
"48 48 10 1",
/* colors */
" 	s None	c None",
".	c #999999",
"X	c black",
"o	c #111111",
"O	c #333333",
"+	c white",
"@	c #FF6666",
"#	c yellow",
"$	c #DDDDDD",
"%	c #BBBBBB",
/* pixels */
"                                                ",
"                                                ",
"                                                ",
"                                                ",
"                                                ",
"                                                ",
"                                                ",
"                                                ",
"                                                ",
"                                                ",
"                                                ",
"                                                ",
"                 .XX.XX.                        ",
"                o.XX.XX.o                       ",
"               XX       XX.                     ",
"              .            XX                   ",
"              .            XX                   ",
"              X            .o                   ",
"           OOOOOOO           X                  ",
"           OOOOOOO           X                  ",
"          oOoooooO           oo                 ",
"         OOoooXoooOO         +XX                ",
"       ooOOoooXoooOOoo        XX                ",
"      OOOooXXXXooXooOOO       .o   @           #",
"     OoooXXXXXXXXXXXoooO      XX         #   @@ ",
"    oOoooXXXXXXXXXXXoooOo     XX         #   @@ ",
"   OOoXXXXXXXXXXXXXXXXXoOO     oo   ##          ",
"   OOoXXXXXXXXX$$%..XXXoOO      X     @   ##    ",
"  oOOoXXXXXXXXX$$%..XXXoOOo     X     @   ##    ",
" oOooXXXXXXXXXXXX$%%.XXXooO      ..             ",
" oOooXXXXXXXXXXXXXXXXXXXooO        X..X  @  #  @",
"+oOooXXXXXXXXXXXXXXXXXXXooOo       X..X  @  #  @",
"ooOooXXXXXXXXXXXXX$$%..XooOo                    ",
"ooOooXXXXXXXXXXXXX$$%..XooOo        ##    ##    ",
"+oOooXXXXXXXXXXXXX$$%..XooOo        ##    ##    ",
" oOooXXXXXXXXXXXXX$$%..XooOo           @@   @   ",
" oOooXXXXXXXXXXXX$%%.XXXooOo       @            ",
" oOooXXXXXXXXXXXX$%%.XXXooOo       @            ",
"  OooXXXXXXXXXXXX$%%.XXXooO      ##    ##      #",
"   OOoXXXXXXXXX$$%..XXXoOOo                     ",
"   OOoXXXXXXXXX$$%..XXXoOO                      ",
"   OOoXXXXXXXXXXXXXXXXXoOO             @@       ",
"     OoooXXXXXXXXXXXoooOo                       ",
"     OoooXXXXXXXXXXXoooo                        ",
"      OOOoooooooooooOOO                         ",
"       ooOOOOOOOOOOOoo                          ",
"         OOOOOOOOOOO                            ",
"           oooooooo                             "};
