#define object_menu_width 16
#define object_menu_height 16
static char object_menu_bits[] = {
   0x00, 0x00, 0xf8, 0x1f, 0x08, 0x30, 0x08, 0x30, 0xe8, 0x37, 0x08, 0x30,
   0xe8, 0x33, 0x08, 0x30, 0xe8, 0x31, 0x08, 0x30, 0xe8, 0x37, 0x08, 0x30,
   0x08, 0x30, 0xf8, 0x3f, 0xf0, 0x3f, 0x00, 0x00};
