/* XPM */
static char * symdir2_xpm[] = {
"16 16 6 1",
" 	s None	c None",
".	c grey51",
"X	c grey76",
"o	c yellow1",
"O	c white",
"+	c grey4",
"                ",
"  .....         ",
" .XoXoX.        ",
".XoXoXoX......  ",
".OOOOOOOOOOOO.+ ",
".OoXoXoXoXoXo.+ ",
".OXoX+XoX+XoX.+ ",
".OoX++oXo+oXo.+ ",
".OX+++++++XoX.+ ",
".OoX++oXoXoXo.+ ",
".OXoX+XoXoXoX.+ ",
".OoXoXoXoXoXo.+ ",
"..............+ ",
" ++++++++++++++ ",
"                ",
"                "};
