/* XPM */
static char * question_xpm[] = {
/* width height ncolors chars_per_pixel */
"48 48 5 1",
/* colors */
" 	c None",
".	c orange",
"X	c red",
"o	c firebrick",
"O	c slate grey",
/* pixels */
"                                                ",
"                                                ",
"               .................                ",
"            ...XXXXXXXXXXXXXXXXXXXX             ",
"            ...XXXXXXXXXXXXXXXXXXXX             ",
"           .XXXXXXXXoooooooooooooXXXOO          ",
"         ..XXXXXXoooooooooooooooooooXXO         ",
"         ..XXXXXXoooooooooooooooooooXXO         ",
"        .XXXXXXooooooXXXXXXoooooooooooXOO       ",
"      ..XXXXXXooooooOOOO  XXXooooooooooooO      ",
"      ..XXXXXXooooooOOOO  XXXooooooooooooO      ",
"     .XXXXXXooooooOOOOO    XXXoooooooooooOOO    ",
"     .XXXXXoooooooOOO      ..XXXoooooooooOOO    ",
"     .XXXXXoooooooOOO      ..XXXoooooooooOOO    ",
"     .XXXXXoooooooooO      ..XXXoooooooooOOO    ",
"      XXXXXoooooooooOOO    ..XXXoooooooooOOO    ",
"      XXXXXoooooooooOOO    ..XXXoooooooooOOO    ",
"        XXXoooooooooOOO   .XXXXXoooooooooOOO    ",
"         XXXooooooOOOOO   .XXXoooooooooOOOOO    ",
"         XXXooooooOOOOO   .XXXoooooooooOOOOO    ",
"           XXXoooOOOO   ..XXXoooooooooOOOO      ",
"            OOOOOOOO   .XXXoooooooooOOOOOO      ",
"            OOOOOOOO   .XXXoooooooooOOOOOO      ",
"              OOOO   ..XXXoooooooooOOOOOO       ",
"                    .XXXooooooooOOOOOOO         ",
"                    .XXXooooooooOOOOOOO         ",
"                  ..XXXoooooooOOOOOO            ",
"                 .XXXooooooooOOOOOO             ",
"                 .XXXooooooooOOOOOO             ",
"                 .XXXooooooOOOOOO               ",
"                  XXXoooooOOOOOO                ",
"                  XXXoooooOOOOOO                ",
"                    XXXoOOOOOO                  ",
"                     OOOOOOOO                   ",
"                     OOOOOOOO                   ",
"                  ..XXXoooO                     ",
"                 .XX.XXXooo                     ",
"                 .XX.XXXooo                     ",
"               ..X..X..XXXooo                   ",
"               ..XXX.XXXXXoooO                  ",
"               ..XXX.XXXXXoooO                  ",
"                 XXXXXXXXXoooOOO                ",
"                  XXXXXXoooOOOOO                ",
"                  XXXXXXoooOOOOO                ",
"                    XoooooOOOOOO                ",
"                     OOOOOOOOO                  ",
"                     OOOOOOOOO                  ",
"                       OOOOOO                   "};
