#define up_arrow_8_width 8
#define up_arrow_8_height 8
static unsigned char up_arrow_8_bits[] = {
   0x18, 0x18, 0x3c, 0x3c, 0x7e, 0x7e, 0xff, 0xff};
