/* XPM */
static char * warning_xpm[] = {
/* width height ncolors chars_per_pixel */
"48 48 5 1",
/* colors */
" 	c None",
".	c orange",
"X	c red",
"o	c firebrick",
"O	c slate grey",
/* pixels */
"                                                ",
"                                                ",
"                                                ",
"                                                ",
"                     ...... .                   ",
"                   ..XoooooooO                  ",
"                   .XXXoooooooO                 ",
"                  ..XXXXXXXoooOOO               ",
"                  XXXXXXXXXoooooO               ",
"                  XXXXXXXXXoooooOO              ",
"                  XXXXXXXXXXooooOO              ",
"                  XXXXXXXXXXooooOOO             ",
"                  XXXXXXXXXXooooOOO             ",
"                  XXXXXXXXXXooooOOO             ",
"                  XXXXXXXXXXooooOOO             ",
"                  XXXXXXXXXXooooOOO             ",
"                  XXXXXXXXXXooooOOO             ",
"                  XXXXXXXXXXooooOOO             ",
"                  XXXXXXXXXXooooOOO             ",
"                  XXXXXXXXXXooooOOO             ",
"                  XXXXXXXXXXooooOO              ",
"                    XXXXXXXXooOOO               ",
"                    XXXXXXXXooOOO               ",
"                    XXXXXXXoooOO                ",
"                     XXXXXoooOO                 ",
"                     XXXXooooOO                 ",
"                     XXXoooooOO                 ",
"                       XoooOOO                  ",
"                       XoooOOO                  ",
"                       OoooOOO                  ",
"                       OOOOOO                   ",
"                       OOOOOO                   ",
"                       OOOOOO                   ",
"                      .XXXXOO                   ",
"                    ...XXXXOOO                  ",
"                    .XXXXXXXXOO                 ",
"                   ..XXXXXXXXXOO                ",
"                  ..XXXXXXXXXXOOO               ",
"                  ..XXXXXX.XXXOOO               ",
"                  ..XXXXXX.XXXOOO               ",
"                    XXXXXX.XXXOOO               ",
"                     XXX..XXXOOOO               ",
"                       XXXXOOOOOO               ",
"                       XXXXOOOOO                ",
"                        OOOOOOO                 ",
"                        OOOOOO                  ",
"                          OOO                   ",
"                                                "};
